<svg width="1920" height="1521" viewBox="0 0 1920 1521" fill="none" xmlns="http://www.w3.org/2000/svg">
<g opacity="0.68">
<g opacity="0.3">
<mask id="mask0_158_301" style="mask-type:luminance" maskUnits="userSpaceOnUse" x="853" y="0" width="23" height="1521">
<path d="M853.233 1521L853.233 0L875.415 9.69573e-07L875.415 1521L853.233 1521Z" fill="white"/>
</mask>
<g mask="url(#mask0_158_301)">
<path d="M857.195 602.063L854.819 604.037L857.195 606.01L855.611 607.194L855.611 609.932L853.234 612.361L854.819 613.945L854.819 618.459L855.611 619.644L855.611 642.935L853.234 644.909L853.234 689.651L854.819 691.23L854.819 703.073L857.195 705.047L857.195 606.01L857.195 602.063Z" fill="white"/>
<path fill-rule="evenodd" clip-rule="evenodd" d="M856.799 480.694L856.799 1026.05L874.227 1043.48L874.227 1521L875.019 1521L875.019 1043.14L857.591 1025.72L857.591 481.022L870.266 468.347L870.266 -2.07766e-07L869.474 -2.42393e-07L869.474 468.019L856.799 480.694Z" fill="white"/>
</g>
</g>
<g opacity="0.3">
<mask id="mask1_158_301" style="mask-type:luminance" maskUnits="userSpaceOnUse" x="1853" y="0" width="24" height="1521">
<path d="M1853.85 1521L1853.85 0L1876.03 9.69573e-07L1876.03 1521L1853.85 1521Z" fill="white"/>
</mask>
<g mask="url(#mask1_158_301)">
<path d="M1857.81 602.063L1855.43 604.037L1857.81 606.01L1856.23 607.194L1856.23 609.932L1853.85 612.361L1855.43 613.945L1855.43 618.459L1856.23 619.644L1856.23 642.935L1853.85 644.909L1853.85 689.651L1855.43 691.23L1855.43 703.073L1857.81 705.047L1857.81 606.01L1857.81 602.063Z" fill="white"/>
<path fill-rule="evenodd" clip-rule="evenodd" d="M1857.41 480.694L1857.41 1026.05L1874.84 1043.48L1874.84 1521L1875.63 1521L1875.63 1043.14L1858.21 1025.72L1858.21 481.022L1870.88 468.347L1870.88 -2.07766e-07L1870.09 -2.42393e-07L1870.09 468.019L1857.41 480.694Z" fill="white"/>
</g>
</g>
<g opacity="0.3">
<mask id="mask2_158_301" style="mask-type:luminance" maskUnits="userSpaceOnUse" x="353" y="0" width="23" height="1521">
<path d="M353.728 1521L353.729 0L375.91 9.69573e-07L375.91 1521L353.728 1521Z" fill="white"/>
</mask>
<g mask="url(#mask2_158_301)">
<path d="M357.69 602.063L355.314 604.037L357.69 606.01L356.106 607.194L356.106 609.932L353.729 612.361L355.314 613.945L355.314 618.459L356.106 619.644L356.106 642.935L353.729 644.909L353.729 689.651L355.314 691.23L355.314 703.073L357.69 705.047L357.69 606.01L357.69 602.063Z" fill="white"/>
<path fill-rule="evenodd" clip-rule="evenodd" d="M357.294 480.694L357.294 1026.05L374.722 1043.48L374.722 1521L375.515 1521L375.515 1043.14L358.086 1025.72L358.087 481.022L370.762 468.347L370.762 -2.07766e-07L369.969 -2.42393e-07L369.969 468.019L357.294 480.694Z" fill="white"/>
</g>
</g>
<g opacity="0.3">
<mask id="mask3_158_301" style="mask-type:luminance" maskUnits="userSpaceOnUse" x="1354" y="0" width="23" height="1521">
<path d="M1354.34 1521L1354.34 0L1376.53 9.69573e-07L1376.52 1521L1354.34 1521Z" fill="white"/>
</mask>
<g mask="url(#mask3_158_301)">
<path d="M1358.31 602.063L1355.93 604.037L1358.31 606.01L1356.72 607.194L1356.72 609.932L1354.34 612.361L1355.93 613.945L1355.93 618.459L1356.72 619.644L1356.72 642.935L1354.34 644.909L1354.34 689.651L1355.93 691.23L1355.93 703.073L1358.31 705.047L1358.31 606.01L1358.31 602.063Z" fill="white"/>
<path fill-rule="evenodd" clip-rule="evenodd" d="M1357.91 480.694L1357.91 1026.05L1375.34 1043.48L1375.34 1521L1376.13 1521L1376.13 1043.14L1358.7 1025.72L1358.7 481.022L1371.38 468.347L1371.38 -2.07766e-07L1370.58 -2.42393e-07L1370.58 468.019L1357.91 480.694Z" fill="white"/>
</g>
</g>
<g opacity="0.3">
<mask id="mask4_158_301" style="mask-type:luminance" maskUnits="userSpaceOnUse" x="103" y="0" width="23" height="1521">
<path d="M103.174 1521L103.174 0L125.355 9.69573e-07L125.355 1521L103.174 1521Z" fill="white"/>
</mask>
<g mask="url(#mask4_158_301)">
<path d="M107.136 602.063L104.759 604.037L107.136 606.01L105.551 607.194L105.551 609.932L103.175 612.361L104.759 613.945L104.759 618.459L105.551 619.644L105.551 642.935L103.175 644.909L103.175 689.651L104.759 691.23L104.759 703.073L107.136 705.047L107.136 606.01L107.136 602.063Z" fill="white"/>
<path fill-rule="evenodd" clip-rule="evenodd" d="M106.74 480.694L106.74 1026.05L124.168 1043.48L124.168 1521L124.96 1521L124.96 1043.14L107.532 1025.72L107.532 481.022L120.207 468.347L120.207 -2.07766e-07L119.415 -2.42393e-07L119.415 468.019L106.74 480.694Z" fill="white"/>
</g>
</g>
<g opacity="0.3">
<mask id="mask5_158_301" style="mask-type:luminance" maskUnits="userSpaceOnUse" x="1103" y="0" width="23" height="1521">
<path d="M1103.79 1521L1103.79 0L1125.97 9.69573e-07L1125.97 1521L1103.79 1521Z" fill="white"/>
</mask>
<g mask="url(#mask5_158_301)">
<path d="M1107.75 602.063L1105.37 604.037L1107.75 606.01L1106.17 607.194L1106.17 609.932L1103.79 612.361L1105.37 613.945L1105.37 618.459L1106.17 619.644L1106.17 642.935L1103.79 644.909L1103.79 689.651L1105.37 691.23L1105.37 703.073L1107.75 705.047L1107.75 606.01L1107.75 602.063Z" fill="white"/>
<path fill-rule="evenodd" clip-rule="evenodd" d="M1107.35 480.694L1107.35 1026.05L1124.78 1043.48L1124.78 1521L1125.57 1521L1125.57 1043.14L1108.15 1025.72L1108.15 481.022L1120.82 468.347L1120.82 -2.07766e-07L1120.03 -2.42393e-07L1120.03 468.019L1107.35 480.694Z" fill="white"/>
</g>
</g>
<g opacity="0.3">
<mask id="mask6_158_301" style="mask-type:luminance" maskUnits="userSpaceOnUse" x="604" y="0" width="23" height="1521">
<path d="M604.284 1521L604.284 0L626.465 9.69573e-07L626.465 1521L604.284 1521Z" fill="white"/>
</mask>
<g mask="url(#mask6_158_301)">
<path d="M608.246 602.063L605.87 604.037L608.246 606.01L606.662 607.194L606.662 609.932L604.285 612.361L605.87 613.945L605.87 618.459L606.662 619.644L606.662 642.935L604.285 644.909L604.285 689.651L605.87 691.23L605.87 703.073L608.246 705.047L608.246 606.01L608.246 602.063Z" fill="white"/>
<path fill-rule="evenodd" clip-rule="evenodd" d="M607.85 480.694L607.85 1026.05L625.278 1043.48L625.278 1521L626.07 1521L626.07 1043.14L608.642 1025.72L608.642 481.022L621.317 468.347L621.317 -2.07766e-07L620.525 -2.42393e-07L620.525 468.019L607.85 480.694Z" fill="white"/>
</g>
</g>
<g opacity="0.3">
<mask id="mask7_158_301" style="mask-type:luminance" maskUnits="userSpaceOnUse" x="1604" y="0" width="24" height="1521">
<path d="M1604.9 1521L1604.9 0L1627.08 9.69573e-07L1627.08 1521L1604.9 1521Z" fill="white"/>
</mask>
<g mask="url(#mask7_158_301)">
<path d="M1608.86 602.063L1606.48 604.037L1608.86 606.01L1607.28 607.194L1607.28 609.932L1604.9 612.361L1606.48 613.945L1606.48 618.459L1607.28 619.644L1607.28 642.935L1604.9 644.909L1604.9 689.651L1606.48 691.23L1606.48 703.073L1608.86 705.047L1608.86 606.01L1608.86 602.063Z" fill="white"/>
<path fill-rule="evenodd" clip-rule="evenodd" d="M1608.47 480.694L1608.47 1026.05L1625.89 1043.48L1625.89 1521L1626.69 1521L1626.69 1043.14L1609.26 1025.72L1609.26 481.022L1621.93 468.347L1621.93 -2.07766e-07L1621.14 -2.42393e-07L1621.14 468.019L1608.47 480.694Z" fill="white"/>
</g>
</g>
</g>
</svg>
